<svg xmlns="http://www.w3.org/2000/svg" width="61" height="36" viewBox="0 0 61 36"><path fill-rule="evenodd" d="M8.99 11.602s2.935-4.64 3.426-6.063c.81-2.35 3.02-2.49 3.02-2.49s7.75-.516 15.06-.525c2.604.003 5.26.07 7.607.157a341.804 341.804 0 0 1 2.964.123 251.8 251.8 0 0 1 4.477.245c.01 0 1.268.08 2.234 1.132.287.313.546.716.74 1.225.018.045.038.085.054.132l2.64 4.272a327.476 327.476 0 0 0 .785 1.79s.104.318.08.713c-.012.188-.05.393-.148.592-6.5.25-15.484-.813-21.85-.836-6.62-.022-14.986 1-21.02.837-.304-.615-.07-1.305-.07-1.305zm51.65 2.354c-.064.09-.14.17-.228.248a1.886 1.886 0 0 1-.843.417c-1.817.416-1.985.41-3.396.6-.325.046-.596.08-.917.11a1.09 1.09 0 0 1-.52-.134V18.2s0 13.303.004 13.32c.008.047.015.093.015.14v2.595c0 .926-.774 1.683-1.72 1.683h-4.157l-.892.017h-1.26c-.212 0-.413-.044-.602-.113-.65-.24-1.12-.852-1.12-1.57l-.01-2.526c0-.048-28.994-.07-28.994-.023v2.594c0 .926-.774 1.683-1.72 1.683l-6.327-.062c-.946 0-1.72-.757-1.72-1.683V31.66c0-.065.012-.13.02-.192V15.196c-.154.082-.327.133-.646.127a33.044 33.044 0 0 1-.793-.1c-1.41-.193-1.58-.187-3.394-.602C.235 14.35-.068 13.418.012 12.54c.116-1.27.225-1.83 1.923-1.83.476 0 1.078.045 1.84.13.71.08 1.394.174 1.76 1.03 0 0 .142.693.937.95.036-.103 2.944-6.666 3.426-8.066 1.08-3.132 3.878-4.126 5.36-4.22C15.378.525 23.054.02 30.304 0h.19a238.715 238.715 0 0 1 9.526.232c.722.032 1.398.063 2.014.094 1.79.088 3.065.166 3.51.194l.186.012c1.116.07 2.978.653 4.29 2.273.29.357.55.767.77 1.23.11.226.212.462.3.717.045.13.116.315.198.524.586 1.494 2.015 4.766 2.76 6.47.276.63.46 1.047.48 1.107.784-.292.926-.985.926-.985.024-.055.052-.098.078-.147.38-.712 1.018-.81 1.682-.883.762-.084 1.363-.128 1.84-.128 1.247 0 1.634.304 1.8.97.06.24.092.522.122.858.013.134.012.27.005.404-.02.35-.115.69-.34 1.014zM10 16.996v.948c0 .55.447.995 1 .995h1a.994.994 0 0 0 1-.996v-.95A.998.998 0 0 0 12 16h-1a.994.994 0 0 0-1 .995zm4 .003v1c0 .557.447 1 1 1h1a.996.996 0 0 0 1-1v-1a.996.996 0 0 0-1-1h-1a.996.996 0 0 0-1 1zm4 0v1c0 .557.447 1 1 1h1a.996.996 0 0 0 1-1v-1a.996.996 0 0 0-1-1h-1a.996.996 0 0 0-1 1zm22-.005v.95c0 .548.447.994 1 .994h1a.994.994 0 0 0 1-.996v-.95A.998.998 0 0 0 42 16h-1a.994.994 0 0 0-1 .995zM44 17v1c0 .557.447 1 1 1h1a.996.996 0 0 0 1-1v-1a.996.996 0 0 0-1-1h-1a.996.996 0 0 0-1 1zm4 0v1c0 .557.447 1 1 1h1a.996.996 0 0 0 1-1v-1a.996.996 0 0 0-1-1h-1a.996.996 0 0 0-1 1zm-26 7v4h16v-4H22z" opacity=".2"/></svg>