<svg xmlns="http://www.w3.org/2000/svg" width="38" height="39" viewBox="0 0 38 39"><path fill-rule="evenodd" d="M32.57 23.707a14.293 14.293 0 0 1-9.274 9.364.857.857 0 0 1-1.124-.84v-.388a9.586 9.586 0 0 1 9.593-9.24.85.85 0 0 1 .806 1.105M7.54 14.323a.886.886 0 0 1-.473.14.9.9 0 0 1-.8-1.303c3.498-7.034 12.035-9.9 19.07-6.404a14.222 14.222 0 0 1 6.403 6.404.9.9 0 0 1-.803 1.3.887.887 0 0 1-.473-.14c-2.637-1.656-6.79-2.715-11.462-2.715s-8.825 1.063-11.462 2.718m7.158 18.748a14.292 14.292 0 0 1-9.267-9.363.85.85 0 0 1 .797-1.105 9.585 9.585 0 0 1 9.578 9.236v.388a.857.857 0 0 1-1.11.845M19 .5C8.507.5 0 9.007 0 19.5s8.507 19 19 19 19-8.507 19-19C37.987 9.012 29.488.513 19 .5" opacity=".2"/></svg>