<svg xmlns="http://www.w3.org/2000/svg" width="73" height="23" viewBox="0 0 73 23"><g fill-rule="evenodd" opacity=".2"><path d="M56.88 20.354c-1.374 0-2.49-1.1-2.49-2.456 0-1.356 1.116-2.458 2.49-2.458 1.373 0 2.49 1.102 2.49 2.458 0 1.355-1.12 2.456-2.49 2.456m0-7.506c-2.82 0-5.117 2.266-5.117 5.05 0 2.785 2.295 5.05 5.116 5.05 2.82 0 5.116-2.265 5.116-5.05 0-2.784-2.295-5.05-5.117-5.05m-43.61 7.506c-1.374 0-2.49-1.1-2.49-2.456 0-1.356 1.116-2.458 2.49-2.458 1.372 0 2.488 1.102 2.488 2.458 0 1.355-1.116 2.456-2.49 2.456m0-7.506c-2.82 0-5.115 2.266-5.115 5.05 0 2.785 2.295 5.05 5.116 5.05 2.82 0 5.117-2.265 5.117-5.05 0-2.784-2.297-5.05-5.118-5.05"/><path d="M57.542 5.63c-.464.458-1.493 1.526-2.112.51-.62-1.017-1.442-2.746-1.442-2.746s2.37.66 3.144.966c.77.305.875.813.41 1.27M42.395 7.26c-1.34.048-1.7.048-1.648-.335.052-.383.412-3.018.566-3.834.155-.814.515-.814 1.237-.814.723 0 4.637.24 6.234.43 1.597.192 2.834.192 3.092.575.257.385 1.752 3.418 1.752 3.418s-9.892.514-11.233.562M39.51 2.733c-.102.51-.36 1.577-.67 3-.31 1.424-.565 1.73-2.01 1.83-1.442.103-15.3.662-15.3.662s8.036-3.864 9.79-4.73c1.75-.863 5.1-1.067 6.49-1.22 1.39-.152 1.804-.05 1.7.458m32.085 7.55c-.374-.47-.392-1.823-.412-2.243-.02-.42.463-2.555-3.072-2.746-3.535-.19-4.017-.21-4.017-.21s-6.646-2.784-9.39-3.49L51.96.89s-.02-.076-.136-.306c-.117-.23-.368-.42-1.102-.228-.734.19-.966.267-.966.267S43.052-.027 37.12.47c-5.93.497-7.96 1.64-9.97 2.556-2.01.915-7.476 3.757-7.476 3.757s-6.607.667-9.003.934-8.094 1.18-9.833 4.556c-.33.686-.58 1.888-.523 2.917.058 1.03.175 1.925.232 2.193.058.267-.154.342-.405.706-.25.36-.405.837 1.74 1.238 1.876.35 3.604.41 4.835.442a6.58 6.58 0 0 1-.248-1.792c0-3.676 3.03-6.666 6.755-6.666s6.755 2.99 6.755 6.666c0 .576-.075 1.137-.216 1.67h30.625a6.554 6.554 0 0 1-.216-1.67c0-3.676 3.03-6.666 6.754-6.666 3.723 0 6.753 2.99 6.753 6.666 0 .136-.005.27-.012.405 3.93-.385 7.392-.725 8.02-.784 1.572-.152 1.217-3.756.912-4.807-.304-1.05-.627-2.04-1.002-2.51"/></g></svg>