<svg xmlns="http://www.w3.org/2000/svg" width="79" height="55" viewBox="0 0 79 55"><g fill="#55B555" fill-rule="evenodd"><path d="M55.94 24.802a58.457 58.457 0 0 1-3.51-.14c-1.895-.13-1.996-1.205-1.932-1.728.022-.172.06-.284.06-.284.047-.9 1.08-1.604 2.455-2.146.89-.352 1.922-.635 2.926-.858a40.5 40.5 0 0 1 4.335-.7c.082-.006.163-.008.242-.008 2.862 0 3.764 2.977 2.807 4.4-.68 1.014-3.295 1.472-6.945 1.472-.14 0-.298-.007-.44-.008M16.015 14.91s3.205-7.25 3.74-8.806a3.95 3.95 0 0 1 3.298-2.72s8.464-.562 16.447-.572c2.847.003 5.748.078 8.31.17a373.302 373.302 0 0 1 3.24.136c2.886.135 4.836.263 4.89.267.01 0 1.384.09 2.44 1.237.313.342.595.782.808 1.338.018.048.04.093.058.144l2.882 6.85a357.776 357.776 0 0 0 .86 1.956s.113.347.086.778c-.013.206-.054.43-.162.647-2.33-.15-4.623-.282-6.973-.392a331.268 331.268 0 0 0-7.137-.255c-2.805-.07-5.732-.638-9.035-.646h-.373l-1.352.005-1.475.01c-7.866.067-14.055.86-20.477 1.278-.33-.672-.074-1.425-.074-1.425zm10.556 9.752a57.772 57.772 0 0 1-3.948.148c-3.65 0-6.265-.458-6.945-1.47-.958-1.425-.056-4.4 2.806-4.4.08 0 .16 0 .242.005 0 0 9.573.92 9.716 3.705 0 0 .646 1.838-1.872 2.012m45.855-9.365a2.11 2.11 0 0 0 .37-1.108 3.156 3.156 0 0 0-.003-.443 6.51 6.51 0 0 0-.135-.937c-.18-.727-.604-1.06-1.966-1.06-.52 0-1.177.048-2.01.14-.725.08-1.423.187-1.837.965-.028.053-.06.1-.084.16 0 0-.156.758-1.013 1.077-.02-.066-.22-.52-.523-1.21-.814-1.86-2.374-5.434-3.015-7.066-.09-.227-.167-.43-.216-.572a7.406 7.406 0 0 0-.327-.784 6.815 6.815 0 0 0-.84-1.342C59.392 1.348 57.36.712 56.14.635L55.94.622a299.344 299.344 0 0 0-6.033-.314A260.722 260.722 0 0 0 39.71.056h-.21l-.206-.002c-7.92.02-16.304.573-16.434.58-1.62.104-4.674 1.19-5.854 4.61-.527 1.53-3.703 8.697-3.742 8.81-.87-.28-1.025-1.038-1.025-1.038-.4-.935-1.148-1.04-1.923-1.126-.83-.092-1.488-.14-2.01-.14-1.853 0-1.972.61-2.1 1.997-.086.96.244 1.98 1.54 2.276 1.982.453 2.166.446 3.706.656.355.047.65.085.866.11.348.006.536-.05.704-.14v17.772c-.008.07-.02.14-.02.21v2.835c0 1.01.844 1.838 1.877 1.838l6.91.068c1.035 0 1.88-.827 1.88-1.838V34.7c0-.052 31.667-.027 31.667.025l.012 2.76c0 .784.51 1.452 1.22 1.714.207.075.427.123.658.123h1.377l.974-.02h4.54c1.033 0 1.88-.826 1.88-1.837v-2.833c0-.052-.01-.102-.018-.152-.003-.02-.005-14.55-.005-14.55v-3.28c.168.09.356.146.57.146.35-.03.646-.07 1-.117 1.54-.21 1.725-.204 3.708-.657.395-.09.69-.254.922-.456.094-.084.178-.174.25-.27z"/><path d="M46.54 51.106C64.995 50.22 79 45.904 79 40.714c0-5.832-17.685-10.56-39.5-10.56S0 34.884 0 40.714c0 5.833 17.685 10.56 39.5 10.56v-3.52c-17.862-.065-33.89-3.19-33.89-7.04 0-3.887 16.364-7.04 34.45-7.04 18.083 0 32.744 3.153 32.744 7.04 0 3.194-9.89 5.89-23.44 6.752l-2.825 3.64z"/><path d="M44.03 49.826l-15.94 4.322 4.247-9.687z"/></g></svg>