<svg id="car" xmlns="http://www.w3.org/2000/svg" viewBox="0 0 24 24">
                <path d="M16 15h2a1 1 0 0 0 1-1v-1h-4v1a1 1 0 0 0 1 1zM6 15h2a1 1 0 0 0 1-1v-1H5v1a1 1 0 0 0 1 1zm-1-4h14c-1.167-2.667-1.944-4.381-2.333-5.143-.584-1.143-8.75-1.143-9.334 0C6.944 6.62 6.167 8.333 5 11zm16.573.027l-.573.558v8.47c-.01.504-.674.94-1.222.945H18c-.543 0-1-.44-1-.944v-.945H7v.945A.996.996 0 0 1 6 21H4.222C3.67 21 3 20.559 3 20.056v-8.5l-.567-.536A1.382 1.382 0 0 1 2 10.015c-.008-.466.491-1.285 1-1.293.02 0 .428.082 1.222.247l2.223-4.184C7 3.738 17 3.738 17.555 4.785l2.223 4.184c.444-.164.852-.247 1.222-.247.556 0 1 .77 1 1.293 0 .381-.154.746-.427 1.012z" fill-rule="evenodd" /></svg>