<svg viewBox="0 0 190 100" xmlns="http://www.w3.org/2000/svg" id="coupe" width="100%" height="100%">
        <g transform="translate(0, 33.000000) scale(1.3)" id="Shape">
            <path d="M142.865,35.6371946 L141.084,39.5511946 L137.631,42.4851946 L133.202,42.6951946 L130.992,42.7221946 C131.027,42.0541946 130.958,41.1631946 131.075,40.5441946 C131.508,38.2601946 130.916,33.5331946 129.174,30.0101946 C127.193,26.0031946 119.758,20.9271946 111.558,24.7371946 C108.609,26.1071946 105.523,29.3191946 104.499,33.6721946 C103.616,37.4251946 103.973,41.8521946 104.088,43.002195 L45.19,42.9181946 L44.66,42.8811946 C44.734,41.6191946 44.749,39.3621946 44.902,37.7751946 C45.308,33.5721946 43.038,29.0201946 40.183,26.6351946 C37.17,24.1181946 33.26,22.8201946 28.808,23.7181946 C24.357,24.6161946 20.724,27.6731946 19.194,31.5641946 C17.784,35.1491946 17.81,40.2471946 17.823,41.0291946 L15.647,40.8781946 L12.719,40.7391946 L11.443,40.3201946 L6.639,39.6911946 L4.987,38.9921946 L3.411,37.5241946 L0.033,31.7941946 L0.859,30.7461946 L0,28.9291946 L0.15,26.2041946 L1.685,24.7361946 L2.963,23.1291946 L3.153,19.0061946 L4.462,17.4691946 L3.251,14.6741946 L2.95,14.0451946 L3.101,12.9271946 L3.626,12.6471946 L7.004,12.7871946 L13.956,13.8321946 C13.956,13.8321946 18.474,10.9781946 25.781,7.4531946 C33.099,3.9221946 38.092,3.1701946 38.092,3.1701946 C38.092,3.1701946 56.566,-1.9468054 74.519,0.8211946 C78.336,1.4101946 83.958,3.5191946 89.438,6.4541946 C94.918,9.3891946 102.95,15.1631946 102.95,15.1631946 L103.626,15.7921946 L104.301,15.5121946 L104.977,16.0481946 C104.977,16.0481946 108.43,16.4211946 116.762,17.4691946 C125.095,18.5171946 133.052,20.4741946 136.355,21.8711946 C139.658,23.2691946 139.733,23.6881946 140.183,24.6661946 C140.634,25.6451946 140.634,28.0211946 140.634,28.0211946 L142.285,29.2091946 L142.285,31.8641946 L143.015,32.5631946 L142.865,35.6371946 Z M54.006,4.9291946 C54.006,4.9291946 47.4,5.9101946 42.446,7.2171946 C37.492,8.5241946 36.741,9.5861946 36.741,9.5861946 L36.14,10.7301946 L37.792,13.9981946 L55.733,15.4681946 L54.006,4.9291946 Z M82.832,7.9521946 C75.776,4.2761946 68.078,4.0741946 62.823,4.3191946 C57.568,4.5641946 56.559,4.5211946 56.559,4.5211946 L59.411,15.9581946 L91.239,18.8181946 L96.794,18.4091946 C96.794,18.4091946 89.888,11.6281946 82.832,7.9521946 Z M31.667,26.0281946 C37.578,26.0281946 42.371,30.8201946 42.371,36.7321946 C42.371,42.6431946 37.578,47.435195 31.667,47.435195 C25.755,47.435195 20.963,42.6431946 20.963,36.7321946 C20.963,30.8201946 25.755,26.0281946 31.667,26.0281946 Z M117.53,26.0281946 C123.441,26.0281946 128.234,30.8201946 128.234,36.7311946 C128.234,42.6431946 123.441,47.435195 117.53,47.435195 C111.618,47.435195 106.826,42.6431946 106.826,36.7311946 C106.826,30.8201946 111.618,26.0281946 117.53,26.0281946 Z"></path>
        </g>
    </svg>