<svg xmlns="http://www.w3.org/2000/svg" width="20" height="20" viewBox="0 0 20 20"><title>Oval 88 + Rectangle 244</title><g fill="none" fill-rule="evenodd"><path d="M10 20c5.523 0 10-4.477 10-10S15.523 0 10 0 0 4.477 0 10s4.477 10 10 10zm0-2a8 8 0 1 0 0-16 8 8 0 0 0 0 16z" fill="#FFF"/><circle fill="#000" cx="10" cy="10" r="8"/><path d="M11.485 10.07l2.125-2.124a1.004 1.004 0 0 0-.003-1.41.995.995 0 0 0-1.41-.004L10.07 8.657 7.947 6.532a1.004 1.004 0 0 0-1.41.004.995.995 0 0 0-.004 1.41l2.125 2.125-2.125 2.126a1.004 1.004 0 0 0 .004 1.41.995.995 0 0 0 1.41.004l2.125-2.125 2.126 2.125c.38.382 1.02.387 1.41-.003a.995.995 0 0 0 .004-1.41l-2.125-2.126z" fill="#FFF"/></g></svg>