<svg xmlns="http://www.w3.org/2000/svg" id="ok-form" viewBox="16 -16 49 48">
                <path d="M40.7 3.8c1.5 0 2.7-1.2 2.7-2.7 0-1.5-1.2-2.7-2.7-2.7-1.5 0-2.7 1.2-2.7 2.7 0 1.6 1.2 2.7 2.7 2.7zM40.5-5c3.5 0 6.3 2.8 6.3 6.2 0 3.4-2.8 6.3-6.3 6.3s-6.3-2.8-6.3-6.3C34.2-2.2 37-5 40.5-5zm2.7 18.1l3.7 3.6c.8.7.8 1.9 0 2.7-.8.7-2 .7-2.8 0l-3.7-3.6-3.7 3.6c-.4.4-.9.6-1.4.6-.5 0-1-.2-1.4-.6-.8-.7-.8-1.9 0-2.7l3.7-3.6c-1.4-.3-2.7-.8-3.9-1.6-.7-.5-1-1.7-.4-2.5.6-.9 1.8-1.2 2.7-.6 2.7 1.7 6.3 1.7 9 0 .9-.6 2.1-.3 2.7.6.6.9.3 2.1-.6 2.6-1.2.7-2.5 1.2-3.9 1.5z" fill="#fff" fill-rule="evenodd" /></svg>