<svg xmlns="http://www.w3.org/2000/svg" width="24" height="24" viewBox="0 0 24 24"><path fill-rule="evenodd" clip-rule="evenodd" fill="#db3727" d="M4 12.2c-2-2.1-2-5.5 0-7.7C5 3.6 6.3 3 7.7 3s2.7.6 3.6 1.6l.7.7.7-.7c1-1 2.3-1.6 3.6-1.6 1.4 0 2.7.6 3.7 1.6 2 2.1 2 5.5 0 7.7l-8 8.3-8-8.4z"/><path fill="#db3727" d="M16.3 4c1.1 0 2.1.4 2.9 1.3 1.7 1.7 1.7 4.5 0 6.3L12 19.1l-7.3-7.5C3.1 9.8 3.1 7 4.7 5.3c.8-.8 1.9-1.3 3-1.3s2.1.4 2.9 1.3L12 6.8l1.4-1.5c.8-.8 1.9-1.3 2.9-1.3m0-2c-1.6 0-3.1.6-4.3 1.9C10.8 2.6 9.2 2 7.7 2s-3.2.6-4.4 1.9c-2.4 2.5-2.4 6.5 0 9l8.7 9 8.7-9c2.4-2.5 2.4-6.5 0-9C19.5 2.6 17.9 2 16.3 2z"/></svg>