<svg viewBox="0 0 24 24" id="subscription" width="15" height="15"><path fill="currentColor" d="M18.823 2.293c-1.204 0-2.418.63-2.817 1.892-.4-1.261-1.614-1.892-2.817-1.892-.803 0-1.601.28-2.149.842a3.648 3.648 0 0 0 0 5.079l4.966 5.079 4.966-5.08a3.65 3.65 0 0 0 0-5.078c-.549-.561-1.346-.842-2.149-.842m-5.634 2c1.023 0 2.576 1.565 2.817 2.088.241-.523 1.771-2.088 2.817-2.088.299 0 .767.33.912.479.654.603.422 1.414-.193 2.044l-3.536 3.616-3.536-3.616c-.616-.63-.846-1.452-.152-2.1.145-.147.572-.423.871-.423zm.412 10.186l7.107 7.107L19.293 23l-7.106-7.107A6.962 6.962 0 0 1 8 17.293a7 7 0 1 1 0-14v2c-2.757 0-5 2.243-5 5s2.243 5 5 5a5.015 5.015 0 0 0 4.167-2.248l1.434 1.434z"></path></svg>