<svg xmlns="http://www.w3.org/2000/svg" width="48" height="48"><g fill="none" fill-rule="evenodd"><rect width="48" height="48" fill="#DE3322" rx="10"/><path fill="#FFF" d="M38.708 21.004l-3.653-.457c-.86-.108-2.246-.711-2.92-1.274l-2.636-2.192c-1.108-.923-3.075-1.652-4.578-1.652H15.46c-1.54 0-3.496.826-4.533 1.864l-2.979 2.911C6.837 21.315 6 23.28 6 24.75v2.657c0 1.865 1.626 3.45 3.627 3.45h1.563c.556 1.714 2.201 3.034 4.14 3.034 1.938 0 3.583-1.32 4.14-3.034h9.218c.556 1.714 2.201 3.034 4.14 3.034 1.938 0 3.583-1.32 4.14-3.034h1.563A3.436 3.436 0 0 0 42 27.407V24.75c0-1.869-1.437-3.514-3.292-3.746zM15.33 30.972a1.491 1.491 0 0 1 0-2.981 1.491 1.491 0 0 1 0 2.98zm17.498 0a1.491 1.491 0 0 1 0-2.981 1.491 1.491 0 0 1 0 2.98zm6.386-3.565c0 .419-.442.45-.683.45h-1.65c-.624-1.5-2.203-2.798-4.053-2.798s-3.43 1.298-4.054 2.798h-9.39c-.625-1.5-2.204-2.798-4.054-2.798s-3.43 1.298-4.054 2.798h-1.65c-.367 0-.84-.146-.84-.45V24.75c0-.72.573-1.94 1.13-2.498l2.996-2.961c.519-.52 1.765-1.077 2.547-1.077h9.462c.84 0 2.152.523 2.764 1.033l2.637 2.192c1.091.91 2.977 1.745 4.387 1.92l3.679.467c.415.052.826.505.826.924v2.657z"/></g></svg>