<svg xmlns="http://www.w3.org/2000/svg" width="19" height="22" viewBox="0 0 19 22"><g stroke="#FFF" stroke-width="2" fill="none" fill-rule="evenodd"><path d="M4.915 6.572c-.003.014 0-1.145 0-2.224C4.915 3.268 6.758 1 9.785 1c3.028 0 4.525 2.032 4.525 3.348V6.44s.847.395.847 1.074v1.943s-.05.76-1.108.76c.13 1.285-1.027 5.267-4.264 5.267-3.238 0-4.612-3.11-4.612-5.232-.343-.044-1.257-.082-1.257-1.063 0-.98.062-1.6.062-1.6s.127-1.022.935-1.018z"/><path d="M7.538 14.75l-1.45 1.983s-.587.048-1.68.048c-1.092 0-3.887 1.224-3.337 4.164M11.417 14.75l1.45 1.983s.587.048 1.68.048c1.092 0 3.887 1.224 3.337 4.164"/></g></svg>