<svg xmlns="http://www.w3.org/2000/svg" id="vk-form" viewBox="16 -16 49 48">
                <path d="M41.8 15.9s.5-.1.7-.3c.2-.2.2-.6.2-.6s0-2 1-2.3c1-.3 2.3 1.9 3.6 2.7 1 .6 1.8.5 1.8.5h3.6s1.9-.1 1-1.5c-.1-.1-.5-1-2.7-2.8-2.3-1.9-2-1.6.8-4.9 1.7-2 2.3-3.2 2.1-3.8-.2-.5-1.4-.4-1.4-.4h-4.1s-.3 0-.5.1-.4.4-.4.4-.5 1.7-1.4 3c-1.8 2.8-2.5 2.9-2.8 2.8-.7-.4-.5-1.6-.5-2.5 0-2.7.5-3.8-.9-4.1-.5-.1-.8-.2-1.9-.2-1.4 0-2.7 0-3.4.3-.4.2-.8.7-.6.7.3 0 .9.1 1.2.5.4.5.4 1.7.4 1.7s.2 3.2-.6 3.6c-.5.3-1.3-.3-2.9-2.8-.8-1.3-1.4-2.7-1.4-2.7s-.1-.3-.3-.5c-.3-.2-.6-.2-.6-.2h-3.9s-.6 0-.8.2c-.2.2 0 .6 0 .6s3 6.4 6.4 9.7c3.1 3 6.7 2.8 6.7 2.8h1.6z" fill="#fff" fill-rule="evenodd" /></svg>