<svg xmlns="http://www.w3.org/2000/svg" width="233" height="160"><defs><radialGradient cx="50.477%" cy="99.916%" fx="50.477%" fy="99.916%" r="99.689%" gradientTransform="scale(.5 1) rotate(4.049 .757 8.139)" id="a"><stop stop-color="#8FD6EF" stop-opacity="0" offset="0%"/><stop stop-color="#91D7EF" stop-opacity=".44" offset="43.51%"/><stop stop-color="#98D9F0" stop-opacity=".598" offset="59.19%"/><stop stop-color="#A3DDF2" stop-opacity=".711" offset="70.36%"/><stop stop-color="#B4E4F4" stop-opacity=".802" offset="79.39%"/><stop stop-color="#CAECF7" stop-opacity=".88" offset="87.13%"/><stop stop-color="#E5F5FB" stop-opacity=".948" offset="93.86%"/><stop stop-color="#FFF" offset="100%"/></radialGradient></defs><g fill="none"><path d="M263 126H11C11 56.447 67.48 0 137.074 0 206.67 0 263 56.447 263 126z" fill="url(#a)" transform="matrix(-1 0 0 1 273 0)"/><path d="M.15 127H273v5.773H149.032c-2.252 4.907-7.354 8.227-13.207 8.227-5.854 0-10.956-3.32-13.208-8.227H0V127h.15z" fill="#DB3727"/><path d="M48.176 114.232c22.212-2.034 31.668-5.232 53.28-5.232 18.91 0 31.517 12.645 34.37 15.843 2.85-3.198 15.308-15.843 33.917-15.843 21.312 0 30.617 3.053 52.528 5.233C244.183 116.268 273 115.25 273 115.25v10.32H144.53c0 4.651-3.903 8.43-8.706 8.43-4.802 0-8.705-3.779-8.705-8.43H0v-10.32c.15 0 25.965 1.016 48.176-1.018v-.001z" fill="#FFF"/><path fill="#FFC90F" d="M51 160l7.286-6.988L66 160v-40H51z"/><path fill="#141414" d="M212 69l-10.316-21H119.76L93 69z"/><path d="M140.994 71L157 49h-30.69c.292.153-4.406 10.695 14.684 22z" fill="#FFF"/><path d="M81.953 98c0 7.157-5.99 13-13.477 13C61.14 111 55 105.157 55 98c0-7.156 5.99-13 13.476-13 7.487 0 13.477 5.843 13.477 13zM167 98c0 7.157-5.99 13-13.476 13-7.337 0-13.475-5.843-13.475-13 0-7.156 5.989-13 13.475-13S167 90.843 167 98z" fill="#141414"/><path d="M82 69.33c4.523-.3 8.746-2.247 12.516-4.796C105.223 57.34 110.35 47 132.214 47h44.183l-12.214 3.748c-6.333 0-27.746-.75-31.365-.75-20.509 0-28.953 11.539-35.287 17.833-1.507 1.5.604 1.5 1.508 1.5l77.961-.6V102H42.19s-2.564-18.433 11.159-25.326c9.5-4.646 19.302-6.745 28.65-7.343v-.001z" fill="#FA6446"/><path d="M94 102h115.273C224.643 102 226 95.388 226 88.625v-6.01c-3.315 0-4.521-.602-4.521-4.509V67.737c-1.658 0-4.822-.15-7.836-4.809-.603-1.05-4.068-6.31-4.972-7.813-3.918-6.611-5.727-8.115-9.795-8.115h-26.67C146.74 47 146.89 61.125 138 68.038c-.603.451-7.384 6.611-26.068 9.467C94.905 79.609 94 101.999 94 101.999V102zm52.59-34.263c-.754 0-.906-1.05 0-2.254 4.519-6.462 10.547-14.125 22.452-14.125h29.984c3.767 0 13.561 16.38 9.794 16.38h-62.232.001z" fill="#DB3727"/><path d="M173.266 99.999h-32.26c-.146-3.514 2.21-6.444 5.893-7.323l27.84-10.105c2.064-.146 4.42 1.172 4.42 2.929-.147-.293-5.893 4.687-5.893 14.5v-.001zM221.582 71v8.642c0 3.661 1.178 4.394 4.418 4.394v7.322c0 2.784-10.31 5.859-10.31 5.859.737.146-2.505-17.429-20.475-17.429 0-5.858 7.365-8.641 14.73-8.641h11.637V71z" fill="#B41919"/><path d="M149 69s10.76-7.855 13.942-5.59c3.333 2.116-2.274 5.59-2.274 5.59H149z" fill="#DB3727"/><path d="M211 71s.45 8.514 5.997 8.66h4.495c0-.146-.149-8.66 0-8.66H211zM44 100.064h166.999c.75-2.054 2.999-8.66 5.998-8.66h8.994c0 4.404.899 11.596-14.99 11.596H44v-2.936z" fill="#141414"/><path d="M104 99.999v-.88C104 90.752 111.193 84 120 84s16 6.605 16 14.972V100h-32v-.001z" fill="#141414"/><path d="M132 100c0 7.157-5.778 13-13 13-7.077 0-13-5.843-13-13 0-7.156 5.778-13 13-13s13 5.843 13 13z" fill="#141414"/><path d="M129 100.001c0 5.034-4.275 8.999-9.5 8.999s-9.5-4.118-9.5-8.999c0-4.88 4.275-8.997 9.5-8.997 5.225-.152 9.5 3.965 9.5 8.999V100z" fill="#FFF"/><path d="M121.859 99.821c0 .293-.149.586-.298.878l4.48 2.2c.476-.96.731-2.01.749-3.078 0-1.026-.3-2.05-.747-3.077l-4.482 2.051c.149.293.298.586.298 1.026zm-2.39 2.344c-.298 0-.597-.146-.896-.293l-2.24 4.395a7.056 7.056 0 0 0 3.136.733c1.046 0 2.092-.294 3.137-.733l-2.091-4.541c-.45.44-.747.44-1.046.44zm-2.54-2.344c0-.293.15-.586.3-.88l-4.482-2.197c-.45.88-.747 2.051-.747 3.077 0 1.025.298 2.051.747 3.076l4.48-2.051c-.149-.293-.298-.585-.298-1.025zm2.69-2.199c.299 0 .597.148.896.295l2.241-4.395a7.056 7.056 0 0 0-3.137-.733c-1.046 0-2.093.293-3.138.733l2.093 4.541c.298-.293.597-.44 1.045-.44zm57.813 2.345v-.879c0-8.35 7.321-15.088 16.284-15.088C202.68 84 210 90.591 210 98.942v1.026h-32.568v-.001z" fill="#141414"/><path d="M205 100c0 7.157-5.778 13-13 13s-13-5.843-13-13c0-7.156 5.778-13 13-13s13 5.843 13 13z" fill="#141414"/><path d="M202 100.001c0 5.034-4.276 8.999-9.5 8.999-5.225 0-9.5-4.118-9.5-8.999 0-4.88 4.275-8.997 9.5-8.997 5.224-.152 9.5 3.965 9.5 8.999V100z" fill="#FFF"/><path d="M194.95 99.928c0 .289-.153.577-.307.865l4.593 2.166c.486-.945.747-1.98.764-3.031 0-1.011-.305-2.02-.764-3.031l-4.593 2.02c.306.289.306.578.306 1.01zm-2.45 2.31c-.306 0-.612-.145-.918-.29l-2.297 4.33a7.469 7.469 0 0 0 3.215.722c1.072 0 2.144-.29 3.215-.722l-2.144-4.474c-.305.433-.765.433-1.071.433zm-2.45-2.31c0-.289.155-.578.307-.867l-4.591-2.164c-.46.866-.766 2.02-.766 3.03 0 1.01.306 2.021.766 3.03l4.59-2.02c-.305-.288-.305-.576-.305-1.01zm2.603-2.166c.306 0 .613.145.919.29l2.295-4.33a7.469 7.469 0 0 0-3.214-.722c-1.071 0-2.143.289-3.214.722l2.143 4.474c.459-.289.765-.433 1.07-.433v-.001z" fill="#141414"/><path d="M79 80.619L101 78c-4.942 5.383-10.203 8-16.101 8C80.912 86 79 84.255 79 80.617v.002z" fill="#FFF"/><path d="M54.13 82.24c-.444-.98.296-2.24 1.479-2.24H74.39c1.182 0 1.923 1.4 1.478 2.24l-1.921 4.06a1.11 1.11 0 0 1-1.036.7H57.088c-.445 0-.74-.28-1.036-.7l-1.921-4.06z" fill="#141414"/><path d="M62 80c0 2.85 1.54 3 3.501 3C67.46 83 69 83 69 80h-7z" fill="#FFF"/><path fill="#141414" d="M80 88H48v1h32z"/><path fill="#141414" d="M73 88H57v6h16z"/><path d="M49.276 80H53s-.745 3.892-7 4c.596-1.189 2.086-2.918 3.276-4z" fill="#FFF"/></g></svg>