<svg xmlns="http://www.w3.org/2000/svg" width="76" height="29"><path fill-rule="evenodd" d="M9.797 15.71v9.763h2.744V0H8.444c-4.025 0-7.41 2.672-7.41 8.016 0 3.812 1.496 5.878 3.74 7.018L0 25.474h3.17l4.347-9.763h2.28zm0-2.28h-1.46c-2.387 0-4.347-1.317-4.347-5.414 0-4.24 2.138-5.7 4.347-5.7h1.46V13.43zm30.247 9.763H38.62V7.517h-8.336V9.05c0 4.774-.18 10.332-1.817 14.144H27.36V29h2.494v-3.527h7.695V29h2.493v-5.807zm12.078 1.07l-.642-2.14c-.712.5-1.96 1.212-3.527 1.212-2.21 0-3.35-2.137-3.35-6.2h7.483v-1.53c0-6.093-1.96-8.337-4.952-8.337-3.812 0-5.415 4.204-5.415 9.975 0 5.522 2.28 8.48 5.984 8.48 1.78 0 3.278-.57 4.418-1.46zM23.015 7.516v7.624h-4.133V7.518h-2.78v17.956h2.78V17.42h4.133v8.053h2.743V7.517h-2.743zm39.438 17.956h3.03l-5.096-9.512 4.453-8.443h-2.814l-4.31 8.3v-8.3h-2.78v17.956h2.78V16.53l4.737 8.943zm9.548.25c1.64 0 2.78-.535 3.742-1.354l-.64-2.068c-.643.57-1.676 1.105-3.03 1.105-2.244 0-3.313-2.565-3.313-7.054 0-4.525 1.424-6.77 3.42-6.77 1.14 0 2.21.606 2.956 1.247l.392-2.636c-.784-.5-1.71-.926-3.313-.926-4.204 0-6.377 3.598-6.377 9.227 0 6.128 2.316 9.227 6.163 9.227zm-36.124-2.53h-4.774c1.496-3.812 1.674-9.334 1.674-13.11v-.32h3.1v13.43zM47.134 9.548c1.603 0 2.102 2.244 2.102 5.308H44.64c.178-3.206.784-5.308 2.494-5.308z"/></svg>